M48
; DRILL file {KiCad 8.0.9} date 2025-07-26T13:13:54-0700
; FORMAT={-:-/ absolute / inch / decimal}
; #@! TF.CreationDate,2025-07-26T13:13:54-07:00
; #@! TF.GenerationSoftware,Kicad,Pcbnew,8.0.9
; #@! TF.FileFunction,Plated,1,2,PTH
FMAT,2
INCH
; #@! TA.AperFunction,Plated,PTH,ViaDrill
T1C0.0118
; #@! TA.AperFunction,Plated,PTH,ComponentDrill
T2C0.0276
; #@! TA.AperFunction,Plated,PTH,ComponentDrill
T3C0.0350
; #@! TA.AperFunction,Plated,PTH,ComponentDrill
T4C0.0394
%
G90
G05
T1
X4.01Y-3.944
X4.463Y-3.93
T2
X3.811Y-3.498
X3.811Y-3.598
X4.011Y-3.498
X4.011Y-3.598
T3
X4.173Y-3.098
X4.173Y-3.198
X4.173Y-3.298
X4.173Y-3.398
X4.173Y-3.498
X4.173Y-3.598
X4.173Y-3.698
X4.773Y-3.098
X4.773Y-3.198
X4.773Y-3.298
X4.773Y-3.398
X4.773Y-3.498
X4.773Y-3.598
X4.773Y-3.698
T4
X2.736Y-3.021
X2.836Y-3.021
X2.936Y-3.021
X3.036Y-3.021
M30
