%TF.GenerationSoftware,KiCad,Pcbnew,8.0.9*%
%TF.CreationDate,2025-07-26T13:13:37-07:00*%
%TF.ProjectId,ayushi_hermes_project,61797573-6869-45f6-9865-726d65735f70,rev?*%
%TF.SameCoordinates,Original*%
%TF.FileFunction,Soldermask,Top*%
%TF.FilePolarity,Negative*%
%FSLAX46Y46*%
G04 Gerber Fmt 4.6, Leading zero omitted, Abs format (unit mm)*
G04 Created by KiCad (PCBNEW 8.0.9) date 2025-07-26 13:13:37*
%MOMM*%
%LPD*%
G01*
G04 APERTURE LIST*
G04 Aperture macros list*
%AMRoundRect*
0 Rectangle with rounded corners*
0 $1 Rounding radius*
0 $2 $3 $4 $5 $6 $7 $8 $9 X,Y pos of 4 corners*
0 Add a 4 corners polygon primitive as box body*
4,1,4,$2,$3,$4,$5,$6,$7,$8,$9,$2,$3,0*
0 Add four circle primitives for the rounded corners*
1,1,$1+$1,$2,$3*
1,1,$1+$1,$4,$5*
1,1,$1+$1,$6,$7*
1,1,$1+$1,$8,$9*
0 Add four rect primitives between the rounded corners*
20,1,$1+$1,$2,$3,$4,$5,0*
20,1,$1+$1,$4,$5,$6,$7,0*
20,1,$1+$1,$6,$7,$8,$9,0*
20,1,$1+$1,$8,$9,$2,$3,0*%
G04 Aperture macros list end*
%ADD10C,0.100000*%
%ADD11RoundRect,0.152400X1.063600X0.609600X-1.063600X0.609600X-1.063600X-0.609600X1.063600X-0.609600X0*%
%ADD12C,1.524000*%
%ADD13RoundRect,0.152400X-1.063600X-0.609600X1.063600X-0.609600X1.063600X0.609600X-1.063600X0.609600X0*%
%ADD14RoundRect,0.175000X0.185000X0.175000X-0.185000X0.175000X-0.185000X-0.175000X0.185000X-0.175000X0*%
%ADD15C,1.400000*%
%ADD16O,1.400000X1.400000*%
%ADD17R,1.700000X1.700000*%
%ADD18O,1.700000X1.700000*%
G04 APERTURE END LIST*
D10*
X94716600Y-82016600D02*
X94462600Y-82194400D01*
X94615000Y-81965800D02*
X94716600Y-82016600D01*
X94589600Y-82016600D02*
X94615000Y-81965800D01*
X94481650Y-81724500D02*
X94589600Y-82016600D01*
X94716600Y-81965800D02*
X94481650Y-81724500D01*
X94513400Y-82067400D02*
X94716600Y-81965800D01*
X94411800Y-81737200D02*
X94513400Y-82067400D01*
X94551500Y-81711800D02*
X94411800Y-81737200D01*
X94843600Y-82042000D02*
X94551500Y-81711800D01*
X94462600Y-82143600D02*
X94843600Y-82042000D01*
X94361000Y-81610200D02*
X94462600Y-82143600D01*
X94742000Y-81813400D02*
X94361000Y-81610200D01*
X94894400Y-82092800D02*
X94742000Y-81813400D01*
X94411800Y-82270600D02*
X94894400Y-82092800D01*
X94284800Y-81559400D02*
X94411800Y-82270600D01*
X94538800Y-82931000D02*
X94640400Y-82778600D01*
X94538800Y-82753200D02*
X94538800Y-82931000D01*
X94742000Y-82804000D02*
X94538800Y-82753200D01*
X94526100Y-83108800D02*
X94742000Y-82804000D01*
X94462600Y-82651600D02*
X94526100Y-83108800D01*
X94869000Y-82804000D02*
X94462600Y-82651600D01*
X94589600Y-83083400D02*
X94869000Y-82804000D01*
X94462600Y-83134200D02*
X94589600Y-83083400D01*
X94386400Y-82448400D02*
X94462600Y-83134200D01*
X94386400Y-83210400D02*
X94386400Y-82448400D01*
X94284800Y-81559400D02*
X94386400Y-83210400D01*
X94284800Y-83210400D02*
X94284800Y-81559400D01*
X94132400Y-82727800D02*
X94284800Y-83210400D01*
X94208600Y-83210400D02*
X94132400Y-82727800D01*
X94208600Y-81559400D02*
X94208600Y-83210400D01*
X94107000Y-81559400D02*
X94208600Y-81559400D01*
X94107000Y-83185000D02*
X94107000Y-81559400D01*
X94157800Y-83235800D02*
X94107000Y-83185000D01*
X93878400Y-83210400D02*
X94157800Y-83235800D01*
X94030800Y-83261200D02*
X93878400Y-83210400D01*
X94030800Y-81534000D02*
X94030800Y-83261200D01*
X93929200Y-83210400D02*
X94030800Y-81534000D01*
X93929200Y-81534000D02*
X93929200Y-83210400D01*
X93827600Y-83185000D02*
X93929200Y-81534000D01*
X93827600Y-81584800D02*
X93827600Y-83185000D01*
X93726000Y-83159600D02*
X93827600Y-81584800D01*
X93726000Y-81661000D02*
X93726000Y-83159600D01*
X93649800Y-83083400D02*
X93726000Y-81661000D01*
X93624400Y-81711800D02*
X93649800Y-83083400D01*
X93548200Y-83058000D02*
X93624400Y-81711800D01*
X93497400Y-82956400D02*
X93319600Y-82626200D01*
X93548200Y-81788000D02*
X93497400Y-82956400D01*
X93395800Y-82829400D02*
X93548200Y-81788000D01*
X93446600Y-81915000D02*
X93395800Y-82829400D01*
X93319600Y-82626200D02*
X93446600Y-81915000D01*
X93345000Y-82016600D02*
X93319600Y-82626200D01*
X94462600Y-82575400D02*
X94951658Y-82753799D01*
X94462600Y-82397600D02*
X94462600Y-82575400D01*
X94386400Y-82346800D02*
X94462600Y-82397600D01*
X94995999Y-82169000D02*
X94386400Y-82346800D01*
X94951658Y-82753799D02*
G75*
G02*
X94995999Y-82169000I-819258J356199D01*
G01*
D11*
%TO.C,U2*%
X105159200Y-78689200D03*
D12*
X105994200Y-78689200D03*
D11*
X105159200Y-81229200D03*
D12*
X105994200Y-81229200D03*
D11*
X105159200Y-83769200D03*
D12*
X105994200Y-83769200D03*
D11*
X105159200Y-86309200D03*
D12*
X105994200Y-86309200D03*
D11*
X105159200Y-88849200D03*
D12*
X105994200Y-88849200D03*
D11*
X105159200Y-91389200D03*
D12*
X105994200Y-91389200D03*
D11*
X105159200Y-93929200D03*
D12*
X105994200Y-93929200D03*
X121234200Y-93929200D03*
D13*
X122069200Y-93929200D03*
D12*
X121234200Y-91389200D03*
D13*
X122069200Y-91389200D03*
D12*
X121234200Y-88849200D03*
D13*
X122069200Y-88849200D03*
D12*
X121234200Y-86309200D03*
D13*
X122069200Y-86309200D03*
D12*
X121234200Y-83769200D03*
D13*
X122069200Y-83769200D03*
D12*
X121234200Y-81229200D03*
D13*
X122069200Y-81229200D03*
D12*
X121234200Y-78689200D03*
D13*
X122069200Y-78689200D03*
%TD*%
D14*
%TO.C,U1*%
X108000800Y-99872200D03*
X107030800Y-99872200D03*
X106060800Y-99872200D03*
X105090800Y-99872200D03*
X105090800Y-101422200D03*
X106060800Y-101422200D03*
X107030800Y-101422200D03*
X108000800Y-101422200D03*
%TD*%
D15*
%TO.C,R2*%
X101879400Y-91389200D03*
D16*
X96799400Y-91389200D03*
%TD*%
%TO.C,R1*%
X101879400Y-88849200D03*
D15*
X96799400Y-88849200D03*
%TD*%
D17*
%TO.C,J1*%
X69494400Y-76733400D03*
D18*
X72034400Y-76733400D03*
X74574400Y-76733400D03*
X77114400Y-76733400D03*
%TD*%
M02*
