%TF.GenerationSoftware,KiCad,Pcbnew,8.0.9*%
%TF.CreationDate,2025-07-26T13:13:37-07:00*%
%TF.ProjectId,ayushi_hermes_project,61797573-6869-45f6-9865-726d65735f70,rev?*%
%TF.SameCoordinates,Original*%
%TF.FileFunction,Copper,L1,Top*%
%TF.FilePolarity,Positive*%
%FSLAX46Y46*%
G04 Gerber Fmt 4.6, Leading zero omitted, Abs format (unit mm)*
G04 Created by KiCad (PCBNEW 8.0.9) date 2025-07-26 13:13:37*
%MOMM*%
%LPD*%
G01*
G04 APERTURE LIST*
G04 Aperture macros list*
%AMRoundRect*
0 Rectangle with rounded corners*
0 $1 Rounding radius*
0 $2 $3 $4 $5 $6 $7 $8 $9 X,Y pos of 4 corners*
0 Add a 4 corners polygon primitive as box body*
4,1,4,$2,$3,$4,$5,$6,$7,$8,$9,$2,$3,0*
0 Add four circle primitives for the rounded corners*
1,1,$1+$1,$2,$3*
1,1,$1+$1,$4,$5*
1,1,$1+$1,$6,$7*
1,1,$1+$1,$8,$9*
0 Add four rect primitives between the rounded corners*
20,1,$1+$1,$2,$3,$4,$5,0*
20,1,$1+$1,$4,$5,$6,$7,0*
20,1,$1+$1,$6,$7,$8,$9,0*
20,1,$1+$1,$8,$9,$2,$3,0*%
G04 Aperture macros list end*
%TA.AperFunction,Conductor*%
%ADD10C,0.200000*%
%TD*%
%TA.AperFunction,SMDPad,CuDef*%
%ADD11RoundRect,0.152400X1.063600X0.609600X-1.063600X0.609600X-1.063600X-0.609600X1.063600X-0.609600X0*%
%TD*%
%TA.AperFunction,ComponentPad*%
%ADD12C,1.524000*%
%TD*%
%TA.AperFunction,SMDPad,CuDef*%
%ADD13RoundRect,0.152400X-1.063600X-0.609600X1.063600X-0.609600X1.063600X0.609600X-1.063600X0.609600X0*%
%TD*%
%TA.AperFunction,SMDPad,CuDef*%
%ADD14RoundRect,0.175000X0.185000X0.175000X-0.185000X0.175000X-0.185000X-0.175000X0.185000X-0.175000X0*%
%TD*%
%TA.AperFunction,ComponentPad*%
%ADD15C,1.400000*%
%TD*%
%TA.AperFunction,ComponentPad*%
%ADD16O,1.400000X1.400000*%
%TD*%
%TA.AperFunction,ComponentPad*%
%ADD17R,1.700000X1.700000*%
%TD*%
%TA.AperFunction,ComponentPad*%
%ADD18O,1.700000X1.700000*%
%TD*%
%TA.AperFunction,ViaPad*%
%ADD19C,0.600000*%
%TD*%
G04 APERTURE END LIST*
D10*
%TO.N,GND*%
X117678200Y-101015800D02*
X117678200Y-97815400D01*
X114173000Y-104521000D02*
X117678200Y-101015800D01*
X92125800Y-104521000D02*
X114173000Y-104521000D01*
X91338400Y-103733600D02*
X92125800Y-104521000D01*
X91338400Y-82651600D02*
X91338400Y-103733600D01*
X89687400Y-81000600D02*
X91338400Y-82651600D01*
X71551800Y-81000600D02*
X89687400Y-81000600D01*
X69494400Y-78943200D02*
X71551800Y-81000600D01*
X69494400Y-76733400D02*
X69494400Y-78943200D01*
%TO.N,SCL*%
X107035600Y-100584000D02*
X107035600Y-99872800D01*
X102616000Y-100584000D02*
X107035600Y-100584000D01*
X101854000Y-100177600D02*
X102616000Y-100584000D01*
%TO.N,VCC*%
X113360200Y-99822000D02*
X108026200Y-99898200D01*
%TO.N,SDA*%
X108026200Y-102235000D02*
X108026200Y-101523800D01*
X107061000Y-103200200D02*
X108026200Y-102235000D01*
X101904800Y-103200200D02*
X107061000Y-103200200D01*
X99593400Y-100888800D02*
X101904800Y-103200200D01*
X99593400Y-90119200D02*
X99593400Y-100888800D01*
X98323400Y-88849200D02*
X99593400Y-90119200D01*
X96799400Y-88849200D02*
X98323400Y-88849200D01*
X96799400Y-76809600D02*
X94107000Y-73964800D01*
X96799400Y-88849200D02*
X96799400Y-76809600D01*
X78003400Y-73964800D02*
X94107000Y-73964800D01*
X77089000Y-74879200D02*
X78003400Y-73964800D01*
X77089000Y-76682600D02*
X77089000Y-74879200D01*
%TO.N,Net-(U2-GPIO7{slash}SCL)*%
X101879400Y-91389200D02*
X105994200Y-91389200D01*
%TO.N,Net-(U2-GPIO6{slash}SDA)*%
X101879400Y-88823800D02*
X106019600Y-88823800D01*
%TO.N,GND*%
X123393200Y-81280000D02*
X121234200Y-81280000D01*
X124561600Y-82448400D02*
X123393200Y-81280000D01*
X124561600Y-96062800D02*
X124561600Y-82448400D01*
X122809000Y-97815400D02*
X124561600Y-96062800D01*
X106756200Y-97815400D02*
X122809000Y-97815400D01*
X106070400Y-98501200D02*
X106756200Y-97815400D01*
X106070400Y-99949000D02*
X106070400Y-98501200D01*
%TD*%
D11*
%TO.P,U2,1,GPIO26/ADC0/A0*%
%TO.N,unconnected-(U2-GPIO26{slash}ADC0{slash}A0-Pad1)*%
X105159200Y-78689200D03*
D12*
X105994200Y-78689200D03*
D11*
%TO.P,U2,2,GPIO27/ADC1/A1*%
%TO.N,unconnected-(U2-GPIO27{slash}ADC1{slash}A1-Pad2)*%
X105159200Y-81229200D03*
D12*
X105994200Y-81229200D03*
D11*
%TO.P,U2,3,GPIO28/ADC2/A2*%
%TO.N,unconnected-(U2-GPIO28{slash}ADC2{slash}A2-Pad3)*%
X105159200Y-83769200D03*
D12*
X105994200Y-83769200D03*
D11*
%TO.P,U2,4,GPIO29/ADC3/A3*%
%TO.N,unconnected-(U2-GPIO29{slash}ADC3{slash}A3-Pad4)*%
X105159200Y-86309200D03*
D12*
X105994200Y-86309200D03*
D11*
%TO.P,U2,5,GPIO6/SDA*%
%TO.N,Net-(U2-GPIO6{slash}SDA)*%
X105159200Y-88849200D03*
D12*
X105994200Y-88849200D03*
D11*
%TO.P,U2,6,GPIO7/SCL*%
%TO.N,Net-(U2-GPIO7{slash}SCL)*%
X105159200Y-91389200D03*
D12*
X105994200Y-91389200D03*
D11*
%TO.P,U2,7,GPIO0/TX*%
%TO.N,unconnected-(U2-GPIO0{slash}TX-Pad7)*%
X105159200Y-93929200D03*
D12*
X105994200Y-93929200D03*
%TO.P,U2,8,GPIO1/RX*%
%TO.N,unconnected-(U2-GPIO1{slash}RX-Pad8)*%
X121234200Y-93929200D03*
D13*
X122069200Y-93929200D03*
D12*
%TO.P,U2,9,GPIO2/SCK*%
%TO.N,unconnected-(U2-GPIO2{slash}SCK-Pad9)*%
X121234200Y-91389200D03*
D13*
X122069200Y-91389200D03*
D12*
%TO.P,U2,10,GPIO4/MISO*%
%TO.N,unconnected-(U2-GPIO4{slash}MISO-Pad10)*%
X121234200Y-88849200D03*
D13*
X122069200Y-88849200D03*
D12*
%TO.P,U2,11,GPIO3/MOSI*%
%TO.N,unconnected-(U2-GPIO3{slash}MOSI-Pad11)*%
X121234200Y-86309200D03*
D13*
X122069200Y-86309200D03*
D12*
%TO.P,U2,12,3V3*%
%TO.N,VCC*%
X121234200Y-83769200D03*
D13*
X122069200Y-83769200D03*
D12*
%TO.P,U2,13,GND*%
%TO.N,GND*%
X121234200Y-81229200D03*
D13*
X122069200Y-81229200D03*
D12*
%TO.P,U2,14,VBUS*%
%TO.N,unconnected-(U2-VBUS-Pad14)*%
X121234200Y-78689200D03*
D13*
X122069200Y-78689200D03*
%TD*%
D14*
%TO.P,U1,1,VDD*%
%TO.N,VCC*%
X108000800Y-99872200D03*
%TO.P,U1,2,SCL*%
%TO.N,SCL*%
X107030800Y-99872200D03*
%TO.P,U1,3,GND*%
%TO.N,GND*%
X106060800Y-99872200D03*
%TO.P,U1,4,LED_A*%
%TO.N,unconnected-(U1-LED_A-Pad4)*%
X105090800Y-99872200D03*
%TO.P,U1,5,LED_K*%
%TO.N,unconnected-(U1-LED_K-Pad5)*%
X105090800Y-101422200D03*
%TO.P,U1,6,LDR*%
%TO.N,unconnected-(U1-LDR-Pad6)*%
X106060800Y-101422200D03*
%TO.P,U1,7,INT*%
%TO.N,unconnected-(U1-INT-Pad7)*%
X107030800Y-101422200D03*
%TO.P,U1,8,SDA*%
%TO.N,SDA*%
X108000800Y-101422200D03*
%TD*%
D15*
%TO.P,R2,1*%
%TO.N,Net-(U2-GPIO7{slash}SCL)*%
X101879400Y-91389200D03*
D16*
%TO.P,R2,2*%
%TO.N,SCL*%
X96799400Y-91389200D03*
%TD*%
%TO.P,R1,2*%
%TO.N,Net-(U2-GPIO6{slash}SDA)*%
X101879400Y-88849200D03*
D15*
%TO.P,R1,1*%
%TO.N,SDA*%
X96799400Y-88849200D03*
%TD*%
D17*
%TO.P,J1,1,GND*%
%TO.N,GND*%
X69494400Y-76733400D03*
D18*
%TO.P,J1,2,VCC*%
%TO.N,VCC*%
X72034400Y-76733400D03*
%TO.P,J1,3,SCL*%
%TO.N,SCL*%
X74574400Y-76733400D03*
%TO.P,J1,4,SDA*%
%TO.N,SDA*%
X77114400Y-76733400D03*
%TD*%
D19*
%TO.N,SCL*%
X101854000Y-100177600D03*
%TO.N,VCC*%
X113360200Y-99822000D03*
%TD*%
M02*
